<svg viewBox="0 0 32 32" xmlns="http://www.w3.org/2000/svg">
  <!-- Background circle -->
  <circle cx="16" cy="16" r="16" fill="#ff6b35"/>
  
  <!-- Face -->
  <circle cx="16" cy="18" r="10" fill="#ffdbcc"/>
  
  <!-- Hair (spiky orange) -->
  <path d="M8 12 Q10 6 14 8 Q16 4 18 8 Q20 6 22 8 Q24 10 22 12 Q20 14 18 12 Q16 10 14 12 Q12 14 10 12 Q8 10 8 12 Z" fill="#ff8c42"/>
  
  <!-- Eyes -->
  <circle cx="13" cy="16" r="1.5" fill="#2d3748"/>
  <circle cx="19" cy="16" r="1.5" fill="#2d3748"/>
  
  <!-- Eye highlights -->
  <circle cx="13.5" cy="15.5" r="0.5" fill="#ffffff"/>
  <circle cx="19.5" cy="15.5" r="0.5" fill="#ffffff"/>
  
  <!-- Mouth (excited smile) -->
  <path d="M12 20 Q16 24 20 20" stroke="#2d3748" stroke-width="1.5" fill="none" stroke-linecap="round"/>
  
  <!-- Volleyball -->
  <circle cx="6" cy="26" r="3" fill="#ffffff"/>
  <path d="M6 23 L6 29 M3 26 L9 26" stroke="#2d3748" stroke-width="0.5"/>
</svg>
